<svg width="263" height="209" viewBox="0 0 263 209" fill="none" xmlns="http://www.w3.org/2000/svg">
<g filter="url(#filter0_d_12_2)">
<path fill-rule="evenodd" clip-rule="evenodd" d="M102.5 38.5C101.866 39.6092 99.8163 41.5017 96.5222 40.6543C96.1731 40.5645 95.848 40.3987 95.5481 40.1987C94.8654 39.7436 94.3369 39.0922 94.0322 38.3304L93.8827 37.9568C93.6299 37.3248 93.5 36.6502 93.5 35.9695V34.6468C93.5 32.9025 93.8735 31.1784 94.5953 29.5904L96 26.5L97.653 23.6073C99.2141 20.8753 101.031 18.2974 103.079 15.9083C105.022 13.6407 107.166 11.5526 109.484 9.66931L111.854 7.74356C113.281 6.58388 114.817 5.56427 116.44 4.69884C119.78 2.91727 123.44 1.8152 127.209 1.45627L129.065 1.27953C131.016 1.09367 132.982 1.1091 134.93 1.32559C138.932 1.77018 142.794 3.05518 146.264 5.09641L146.691 5.34743C148.558 6.44609 150.305 7.73821 151.903 9.20245L155.5 12.5L157.775 15.154C160.242 18.0317 162.218 21.2955 163.626 24.8146C164.869 27.9218 165.654 31.1928 165.957 34.5256L166.091 36.001C166.363 38.9927 166.333 42.0042 166.001 44.9899L165.5 49.5C164.506 53.4764 162.907 57.2765 160.759 60.7672L160 62L154.5 69L150.5 73.5C148.5 76.3333 144 83 142 87C141.746 87.5089 141.521 87.9801 141.323 88.4155C140.007 91.3058 140 94.6533 140 97.8288V108.09C140 109.862 141.036 111.471 142.649 112.204L144.291 112.951C145.018 113.281 145.874 113.126 146.439 112.561C146.798 112.202 147 111.715 147 111.206V107.5L147.766 101.629C148.253 97.89 149.191 94.2236 150.557 90.7095C151.517 88.2409 152.685 85.8583 154.048 83.5871L156.879 78.8676C158.617 75.9724 160.78 73.3551 163.296 71.1037C167.051 67.7441 171.512 65.2707 176.351 63.866L184.5 61.5L198.5 58.5L218.071 56.5906C218.569 56.5421 219 56.9333 219 57.4336C219 57.4778 218.997 57.5219 218.99 57.5656L217.5 67L216.156 71.8012C214.725 76.9107 212.617 81.8057 209.887 86.3555L209.654 86.7439C207.558 90.2373 205.082 93.4886 202.273 96.4387C198.446 100.457 194.037 103.876 189.193 106.583L188.271 107.099C182.461 110.345 176.169 112.641 169.634 113.897L166.5 114.5L150.825 115.422C150.312 115.452 150.075 116.075 150.439 116.439C150.479 116.479 150.526 116.514 150.576 116.541L204 145.5L249 170L251.284 171.661C253.397 173.198 255.11 175.22 256.278 177.557L256.351 177.702C257.435 179.871 258 182.262 258 184.687V185.564C258 188.441 257.049 191.236 255.296 193.516C253.796 195.465 251.775 196.951 249.467 197.802L247.128 198.663C244.728 199.548 242.191 200 239.634 200H100.5H20.6707C18.5787 200 16.5085 199.575 14.5856 198.751C11.916 197.607 9.62307 195.733 7.96984 193.345L7.60275 192.815C6.54731 191.291 5.84193 189.552 5.53709 187.723C5.18487 185.609 5.37822 183.441 6.09882 181.423L7.05124 178.757C7.34996 177.92 7.71362 177.108 8.13891 176.329C9.68132 173.501 11.9938 171.168 14.8081 169.602L59 145L96.5 125.5L105 121L113.5 116.5L120.181 113.382C120.726 113.128 121.294 112.927 121.877 112.781L126.09 111.728C127.8 111.3 129 109.763 129 108V99V96.8523C129 92.9806 129.677 89.1386 131 85.5L135 77.5C137.99 71.8517 141.613 66.5617 145.799 61.732L146 61.5L149.179 57.685C150.39 56.2323 151.446 54.6576 152.331 52.9863C154.412 49.0552 155.5 44.6746 155.5 40.2265V39.5V37.4665C155.5 33.8612 154.754 30.2949 153.309 26.9918C152.44 25.005 151.327 23.1341 149.995 21.4223L148.5 19.5L145.813 16.8134C144.61 15.6103 143.245 14.5808 141.758 13.7545C140.26 12.9223 138.651 12.304 136.981 11.9187C134.361 11.3141 131.637 11.292 129.008 11.8554L128.707 11.9198C126.911 12.3047 125.178 12.9386 123.557 13.803L121.595 14.8491C119.538 15.9466 117.602 17.2596 115.822 18.7661C113.289 20.9097 111.094 23.424 109.312 26.2238L108.5 27.5L102.5 38.5ZM168 92.5L179.5 82.5L188.845 75.0238C189.109 74.8127 189.5 75.0006 189.5 75.3385C189.5 75.4422 189.46 75.5418 189.389 75.6168L179 86.5L168 96L152.5 109.078L168 92.5ZM135.545 123.172C134.518 123.058 133.481 123.047 132.452 123.141L131.751 123.204C129.595 123.4 127.479 123.908 125.47 124.712L121 126.5L109.5 131.5L35.5 170L20.4944 178.441C19.8376 178.81 19.258 179.302 18.7873 179.891C17.954 180.933 17.5 182.227 17.5 183.561V184.262C17.5 185.387 17.8829 186.479 18.5858 187.357L18.8626 187.703C19.2786 188.223 19.8362 188.612 20.468 188.823C20.8204 188.94 21.1893 189 21.5607 189H111.5H226.5H239.9C240.629 189 241.352 188.883 242.043 188.652L242.172 188.609C242.39 188.537 242.605 188.448 242.811 188.345C244.452 187.524 245.5 185.841 245.5 184.006C245.5 182.722 244.99 181.49 244.081 180.581L243.294 179.794C242.768 179.268 242.166 178.822 241.508 178.472L173 142L141.12 124.905C139.389 123.977 137.497 123.389 135.545 123.172Z" fill="#F5F5F5"/>
<path d="M152.5 109.078L168 96L179 86.5L189.389 75.6168C189.46 75.5418 189.5 75.4422 189.5 75.3385C189.5 75.0006 189.109 74.8127 188.845 75.0238L179.5 82.5L168 92.5L152.5 109.078ZM152.5 109.078L152 109.5M102.5 38.5C101.866 39.6092 99.8163 41.5017 96.5222 40.6543C96.1731 40.5645 95.848 40.3987 95.5481 40.1987C94.8654 39.7436 94.3369 39.0922 94.0322 38.3304L93.8827 37.9568C93.6299 37.3248 93.5 36.6502 93.5 35.9695V34.6468C93.5 32.9025 93.8735 31.1784 94.5953 29.5904L96 26.5L97.653 23.6073C99.2141 20.8753 101.031 18.2974 103.079 15.9083C105.022 13.6407 107.166 11.5526 109.484 9.66931L111.854 7.74356C113.281 6.58388 114.817 5.56427 116.44 4.69884C119.78 2.91727 123.44 1.8152 127.209 1.45627L129.065 1.27953C131.016 1.09367 132.982 1.1091 134.93 1.32559C138.932 1.77018 142.794 3.05518 146.264 5.09641L146.691 5.34743C148.558 6.44609 150.305 7.73821 151.903 9.20244L155.5 12.5L157.775 15.154C160.241 18.0317 162.218 21.2955 163.626 24.8146C164.869 27.9218 165.654 31.1928 165.957 34.5256L166.091 36.001C166.363 38.9927 166.333 42.0042 166.001 44.9899L165.5 49.5C164.506 53.4764 162.907 57.2765 160.759 60.7672L160 62L154.5 69L150.5 73.5C148.5 76.3333 144 83 142 87C141.746 87.5089 141.521 87.9801 141.323 88.4155C140.007 91.3058 140 94.6533 140 97.8288V108.09C140 109.862 141.036 111.471 142.649 112.204L144.291 112.951C145.018 113.281 145.874 113.126 146.439 112.561C146.798 112.202 147 111.715 147 111.206V107.5L147.766 101.629C148.253 97.89 149.191 94.2236 150.557 90.7095C151.517 88.2409 152.685 85.8583 154.048 83.5871L156.879 78.8676C158.617 75.9724 160.78 73.3551 163.296 71.1037C167.051 67.7441 171.512 65.2707 176.351 63.866L184.5 61.5L198.5 58.5L218.071 56.5906C218.569 56.5421 219 56.9333 219 57.4336C219 57.4778 218.997 57.5219 218.99 57.5656L217.5 67L216.156 71.8012C214.725 76.9107 212.617 81.8057 209.887 86.3555L209.654 86.7439C207.558 90.2373 205.082 93.4886 202.273 96.4387C198.446 100.457 194.037 103.876 189.193 106.583L188.271 107.099C182.461 110.345 176.169 112.641 169.634 113.897L166.5 114.5L150.825 115.422C150.312 115.452 150.075 116.075 150.439 116.439C150.479 116.479 150.526 116.514 150.576 116.541L204 145.5L249 170L251.284 171.661C253.397 173.198 255.11 175.22 256.278 177.557L256.351 177.702C257.435 179.871 258 182.262 258 184.687V185.564C258 188.441 257.049 191.236 255.296 193.516C253.796 195.465 251.775 196.951 249.467 197.802L247.128 198.663C244.728 199.548 242.191 200 239.634 200H100.5H20.6707C18.5787 200 16.5085 199.575 14.5856 198.751C11.916 197.607 9.62307 195.733 7.96984 193.345L7.60275 192.815C6.54731 191.291 5.84193 189.552 5.53709 187.723C5.18487 185.609 5.37822 183.441 6.09882 181.423L7.05124 178.757C7.34996 177.92 7.71362 177.108 8.13891 176.329C9.68132 173.501 11.9938 171.168 14.8081 169.602L59 145L96.5 125.5L105 121L113.5 116.5L120.181 113.382C120.726 113.128 121.294 112.927 121.877 112.781L126.09 111.728C127.8 111.3 129 109.763 129 108V99V96.8524C129 92.9806 129.677 89.1386 131 85.5L135 77.5C137.99 71.8517 141.613 66.5617 145.799 61.732L146 61.5L149.179 57.685C150.39 56.2323 151.446 54.6576 152.331 52.9863C154.412 49.0552 155.5 44.6746 155.5 40.2265V39.5V37.4665C155.5 33.8612 154.754 30.2949 153.309 26.9918C152.44 25.005 151.327 23.1341 149.995 21.4223L148.5 19.5L145.813 16.8134C144.61 15.6103 143.245 14.5808 141.758 13.7545C140.26 12.9223 138.651 12.304 136.981 11.9187C134.361 11.3141 131.637 11.292 129.008 11.8554L128.707 11.9198C126.911 12.3047 125.178 12.9386 123.557 13.803L121.595 14.8491C119.538 15.9466 117.602 17.2596 115.822 18.7661C113.289 20.9097 111.094 23.424 109.312 26.2238L108.5 27.5L102.5 38.5ZM121 126.5L125.47 124.712C127.479 123.908 129.595 123.4 131.751 123.204L132.452 123.141C133.481 123.047 134.518 123.058 135.545 123.172C137.497 123.389 139.389 123.977 141.12 124.905L173 142L241.508 178.472C242.166 178.822 242.768 179.268 243.294 179.794L244.081 180.581C244.99 181.49 245.5 182.722 245.5 184.006C245.5 185.841 244.452 187.524 242.811 188.345C242.605 188.448 242.39 188.537 242.172 188.609L242.043 188.652C241.352 188.883 240.629 189 239.9 189H226.5H111.5H21.5607C21.1893 189 20.8204 188.94 20.468 188.823C19.8362 188.612 19.2786 188.223 18.8626 187.703L18.5858 187.357C17.8829 186.479 17.5 185.387 17.5 184.262V183.561C17.5 182.227 17.954 180.933 18.7873 179.891C19.258 179.302 19.8376 178.81 20.4944 178.441L35.5 170L109.5 131.5L121 126.5Z" stroke="#F5F5F5"/>
<path d="M152.5 109.078L168 96L179 86.5L189.389 75.6168C189.46 75.5418 189.5 75.4422 189.5 75.3385C189.5 75.0006 189.109 74.8127 188.845 75.0238L179.5 82.5L168 92.5L152.5 109.078ZM152.5 109.078L152 109.5M102.5 38.5C101.866 39.6092 99.8163 41.5017 96.5222 40.6543C96.1731 40.5645 95.848 40.3987 95.5481 40.1987C94.8654 39.7436 94.3369 39.0922 94.0322 38.3304L93.8827 37.9568C93.6299 37.3248 93.5 36.6502 93.5 35.9695V34.6468C93.5 32.9025 93.8735 31.1784 94.5953 29.5904L96 26.5L97.653 23.6073C99.2141 20.8753 101.031 18.2974 103.079 15.9083C105.022 13.6407 107.166 11.5526 109.484 9.66931L111.854 7.74356C113.281 6.58388 114.817 5.56427 116.44 4.69884C119.78 2.91727 123.44 1.8152 127.209 1.45627L129.065 1.27953C131.016 1.09367 132.982 1.1091 134.93 1.32559C138.932 1.77018 142.794 3.05518 146.264 5.09641L146.691 5.34743C148.558 6.44609 150.305 7.73821 151.903 9.20244L155.5 12.5L157.775 15.154C160.241 18.0317 162.218 21.2955 163.626 24.8146C164.869 27.9218 165.654 31.1928 165.957 34.5256L166.091 36.001C166.363 38.9927 166.333 42.0042 166.001 44.9899L165.5 49.5C164.506 53.4764 162.907 57.2765 160.759 60.7672L160 62L154.5 69L150.5 73.5C148.5 76.3333 144 83 142 87C141.746 87.5089 141.521 87.9801 141.323 88.4155C140.007 91.3058 140 94.6533 140 97.8288V108.09C140 109.862 141.036 111.471 142.649 112.204L144.291 112.951C145.018 113.281 145.874 113.126 146.439 112.561C146.798 112.202 147 111.715 147 111.206V107.5L147.766 101.629C148.253 97.89 149.191 94.2236 150.557 90.7095C151.517 88.2409 152.685 85.8583 154.048 83.5871L156.879 78.8676C158.617 75.9724 160.78 73.3551 163.296 71.1037C167.051 67.7441 171.512 65.2707 176.351 63.866L184.5 61.5L198.5 58.5L218.071 56.5906C218.569 56.5421 219 56.9333 219 57.4336C219 57.4778 218.997 57.5219 218.99 57.5656L217.5 67L216.156 71.8012C214.725 76.9107 212.617 81.8057 209.887 86.3555L209.654 86.7439C207.558 90.2373 205.082 93.4886 202.273 96.4387C198.446 100.457 194.037 103.876 189.193 106.583L188.271 107.099C182.461 110.345 176.169 112.641 169.634 113.897L166.5 114.5L150.825 115.422C150.312 115.452 150.075 116.075 150.439 116.439C150.479 116.479 150.526 116.514 150.576 116.541L204 145.5L249 170L251.284 171.661C253.397 173.198 255.11 175.22 256.278 177.557L256.351 177.702C257.435 179.871 258 182.262 258 184.687V185.564C258 188.441 257.049 191.236 255.296 193.516C253.796 195.465 251.775 196.951 249.467 197.802L247.128 198.663C244.728 199.548 242.191 200 239.634 200H100.5H20.6707C18.5787 200 16.5085 199.575 14.5856 198.751C11.916 197.607 9.62307 195.733 7.96984 193.345L7.60275 192.815C6.54731 191.291 5.84193 189.552 5.53709 187.723C5.18487 185.609 5.37822 183.441 6.09882 181.423L7.05124 178.757C7.34996 177.92 7.71362 177.108 8.13891 176.329C9.68132 173.501 11.9938 171.168 14.8081 169.602L59 145L96.5 125.5L105 121L113.5 116.5L120.181 113.382C120.726 113.128 121.294 112.927 121.877 112.781L126.09 111.728C127.8 111.3 129 109.763 129 108V99V96.8524C129 92.9806 129.677 89.1386 131 85.5L135 77.5C137.99 71.8517 141.613 66.5617 145.799 61.732L146 61.5L149.179 57.685C150.39 56.2323 151.446 54.6576 152.331 52.9863C154.412 49.0552 155.5 44.6746 155.5 40.2265V39.5V37.4665C155.5 33.8612 154.754 30.2949 153.309 26.9918C152.44 25.005 151.327 23.1341 149.995 21.4223L148.5 19.5L145.813 16.8134C144.61 15.6103 143.245 14.5808 141.758 13.7545C140.26 12.9223 138.651 12.304 136.981 11.9187C134.361 11.3141 131.637 11.292 129.008 11.8554L128.707 11.9198C126.911 12.3047 125.178 12.9386 123.557 13.803L121.595 14.8491C119.538 15.9466 117.602 17.2596 115.822 18.7661C113.289 20.9097 111.094 23.424 109.312 26.2238L108.5 27.5L102.5 38.5ZM121 126.5L125.47 124.712C127.479 123.908 129.595 123.4 131.751 123.204L132.452 123.141C133.481 123.047 134.518 123.058 135.545 123.172C137.497 123.389 139.389 123.977 141.12 124.905L173 142L241.508 178.472C242.166 178.822 242.768 179.268 243.294 179.794L244.081 180.581C244.99 181.49 245.5 182.722 245.5 184.006C245.5 185.841 244.452 187.524 242.811 188.345C242.605 188.448 242.39 188.537 242.172 188.609L242.043 188.652C241.352 188.883 240.629 189 239.9 189H226.5H111.5H21.5607C21.1893 189 20.8204 188.94 20.468 188.823C19.8362 188.612 19.2786 188.223 18.8626 187.703L18.5858 187.357C17.8829 186.479 17.5 185.387 17.5 184.262V183.561C17.5 182.227 17.954 180.933 18.7873 179.891C19.258 179.302 19.8376 178.81 20.4944 178.441L35.5 170L109.5 131.5L121 126.5Z" stroke="black" stroke-opacity="0.2"/>
</g>
<defs>
<filter id="filter0_d_12_2" x="0.865921" y="0.650795" width="261.634" height="207.849" filterUnits="userSpaceOnUse" color-interpolation-filters="sRGB">
<feFlood flood-opacity="0" result="BackgroundImageFix"/>
<feColorMatrix in="SourceAlpha" type="matrix" values="0 0 0 0 0 0 0 0 0 0 0 0 0 0 0 0 0 0 127 0" result="hardAlpha"/>
<feOffset dy="4"/>
<feGaussianBlur stdDeviation="2"/>
<feComposite in2="hardAlpha" operator="out"/>
<feColorMatrix type="matrix" values="0 0 0 0 0 0 0 0 0 0 0 0 0 0 0 0 0 0 0.25 0"/>
<feBlend mode="normal" in2="BackgroundImageFix" result="effect1_dropShadow_12_2"/>
<feBlend mode="normal" in="SourceGraphic" in2="effect1_dropShadow_12_2" result="shape"/>
</filter>
</defs>
</svg>
